<?xml version="1.0" standalone="no"?>
<!DOCTYPE svg PUBLIC "-//W3C//DTD SVG 20010904//EN"
 "http://www.w3.org/TR/2001/REC-SVG-20010904/DTD/svg10.dtd">
<svg version="1.0" xmlns="http://www.w3.org/2000/svg"
 width="500.000000pt" height="615.000000pt" viewBox="0 0 500.000000 615.000000"
 preserveAspectRatio="xMidYMid meet">

<g transform="translate(0.000000,615.000000) scale(0.100000,-0.100000)"
fill="#000000" stroke="none">
<path d="M615 6120 c4 -12 31 -69 61 -127 69 -136 69 -146 2 -118 -25 10 -23
-2 18 -97 59 -139 156 -306 367 -633 138 -212 192 -321 183 -368 -3 -18 -16
-44 -27 -56 l-21 -22 35 -82 c64 -150 92 -267 68 -282 -5 -3 -12 4 -16 15 -7
22 -13 24 -34 11 -8 -5 -11 -16 -6 -30 6 -18 2 -21 -25 -21 -17 0 -40 5 -51
10 -23 13 -25 2 -2 -15 14 -11 10 -16 -35 -41 -29 -16 -52 -31 -52 -34 0 -3
23 -23 51 -44 l51 -38 -4 -87 c-3 -75 -7 -93 -30 -129 -33 -50 -33 -48 -8 -55
28 -7 25 -20 -15 -63 -32 -33 -38 -36 -75 -31 l-41 5 7 -35 c6 -33 6 -35 -15
-24 -16 9 -27 8 -50 -4 -46 -23 -76 -19 -206 30 -66 25 -122 45 -125 45 -3 0
45 -27 105 -61 61 -33 117 -67 125 -76 26 -27 -85 -9 -164 26 -129 59 -79 22
67 -48 80 -39 149 -76 152 -82 4 -6 -2 -13 -14 -16 -24 -6 -25 -9 -9 -26 6 -7
25 -11 43 -9 36 4 50 -9 60 -55 6 -31 5 -33 -57 -64 -157 -79 -284 -193 -337
-300 -54 -113 -61 -290 -16 -419 43 -123 149 -254 228 -285 26 -10 46 -22 44
-28 -4 -12 -125 -66 -372 -167 -99 -41 -184 -78 -190 -83 -10 -10 -1 -8 40 9
10 4 15 0 15 -10 0 -9 4 -16 9 -16 5 0 79 34 165 75 86 41 156 71 156 66 0 -4
-134 -103 -297 -219 -164 -116 -307 -218 -318 -227 -22 -19 -26 -21 203 110
153 87 394 199 415 192 6 -2 -51 -56 -126 -122 -76 -65 -137 -120 -137 -122 0
-7 86 57 202 150 60 48 112 87 115 87 3 0 -7 -16 -21 -35 -15 -19 -25 -35 -22
-35 3 0 33 18 67 40 46 29 72 40 102 40 21 0 67 7 101 16 85 23 168 21 240 -6
68 -26 141 -88 151 -128 l7 -27 34 38 c19 20 43 37 54 37 11 0 20 -2 20 -4 0
-2 -91 -145 -203 -318 -112 -172 -211 -326 -222 -343 l-18 -30 20 20 c11 11
102 117 203 235 235 276 213 254 238 241 17 -9 24 -6 46 20 14 17 27 36 27 42
1 7 5 -16 9 -51 4 -34 10 -65 14 -69 11 -11 26 19 26 53 0 41 33 82 73 89 41
8 111 -17 160 -56 l37 -30 0 27 c0 26 1 27 51 21 28 -4 76 -18 107 -32 69 -31
238 -143 271 -179 14 -14 27 -26 31 -26 4 0 26 29 50 64 46 67 82 96 123 96
36 0 113 -86 127 -141 21 -85 24 -86 49 -7 29 88 37 76 22 -34 -17 -128 -14
-143 16 -75 14 31 30 57 34 57 14 0 68 -89 79 -130 13 -47 13 -133 -1 -163 -9
-20 6 -77 90 -355 56 -182 113 -353 126 -379 14 -26 50 -138 81 -248 30 -110
60 -211 65 -225 11 -29 9 -7 -21 230 -10 85 -24 209 -30 275 -41 454 -69 650
-114 790 -39 123 -33 180 14 130 40 -43 47 -33 56 72 4 54 8 126 8 160 1 35 3
63 6 63 3 0 38 -30 78 -66 40 -37 75 -64 78 -62 2 3 -8 31 -22 64 -45 101 -54
130 -41 143 23 23 74 12 124 -26 88 -67 453 -373 531 -445 42 -40 99 -93 126
-118 55 -51 54 -48 -23 70 -31 47 -80 108 -109 135 -119 111 -242 278 -242
329 0 8 -24 39 -53 68 -50 50 -107 147 -107 182 0 11 9 16 29 16 25 0 39 12
91 78 76 96 96 138 114 232 16 85 86 247 111 256 23 9 125 -13 145 -31 11 -10
37 -15 76 -15 32 0 76 -5 97 -11 87 -24 48 0 -98 60 -86 36 -158 68 -161 73
-3 5 4 36 17 71 15 44 23 97 28 183 6 120 6 122 44 177 21 30 56 67 79 82 l40
27 -23 24 c-18 20 -21 29 -13 42 16 24 217 33 634 28 l335 -4 -166 13 c-91 7
-181 16 -200 21 -19 4 -109 7 -201 5 -153 -3 -169 -1 -192 16 -21 17 -36 19
-107 15 -66 -4 -81 -2 -77 9 2 7 28 20 56 29 53 16 87 37 40 25 -15 -4 -34 -2
-44 3 -14 8 3 16 85 42 57 17 101 33 99 35 -2 2 -44 -5 -93 -15 -149 -29 -160
-31 -150 -22 6 5 71 24 145 42 74 18 142 37 150 42 11 6 8 7 -10 4 -169 -33
-253 -46 -257 -42 -3 2 13 10 36 17 63 19 49 29 -35 26 -54 -1 -78 2 -81 11
-3 6 1 12 9 12 59 1 29 81 -61 158 -34 30 -68 67 -77 84 -29 55 -17 76 83 153
50 38 92 73 92 76 1 4 -46 -8 -104 -27 -126 -41 -147 -42 -174 -8 -32 41 -54
119 -41 144 10 18 8 26 -9 44 -29 31 -26 48 10 69 31 17 31 19 27 79 -4 59 -6
64 -54 105 -30 27 -58 43 -74 43 -26 0 -95 -39 -162 -92 l-37 -29 -7 38 c-4
21 -2 56 5 81 19 71 102 239 177 357 88 138 86 135 80 135 -2 0 -52 -55 -109
-122 -58 -68 -116 -134 -130 -147 l-25 -23 1 81 c2 56 7 85 16 90 8 5 9 11 3
15 -5 3 -41 -35 -80 -84 -39 -50 -73 -86 -77 -81 -3 5 -1 29 4 53 9 39 4 70
-6 41 -7 -20 -50 -15 -73 9 l-20 22 -74 -72 c-41 -40 -77 -72 -80 -72 -4 0
-16 21 -27 47 -24 56 -19 85 19 118 24 21 27 29 24 77 -9 180 -4 256 25 395
16 79 26 139 22 135 -28 -31 -229 -733 -229 -801 0 -15 -14 -46 -31 -69 -54
-73 -115 -67 -150 15 -11 26 -22 49 -24 52 -3 2 -33 -15 -67 -37 -35 -23 -94
-56 -133 -74 -70 -33 -70 -33 -209 -30 -77 2 -148 8 -158 13 -24 13 -23 61 2
84 26 23 25 29 -3 44 -20 11 -30 10 -63 -8 -87 -47 -130 -13 -145 117 -6 42
-14 85 -19 94 -6 10 -10 35 -10 56 0 41 -36 197 -52 222 -6 11 -7 6 -4 -15 16
-89 36 -359 28 -367 -23 -23 -40 29 -76 248 -22 126 -45 256 -52 289 l-13 60
5 -65 c12 -151 19 -360 16 -432 -4 -83 -19 -106 -24 -36 -2 23 -9 43 -15 46
-9 2 -11 -6 -7 -30 4 -20 3 -29 -2 -23 -5 6 -20 22 -32 36 -17 19 -45 107
-103 315 -84 307 -190 666 -195 661 -4 -4 123 -576 170 -766 20 -80 36 -151
36 -159 0 -9 -9 -12 -27 -10 -24 3 -53 40 -214 281 -167 249 -312 438 -361
475 -10 7 -37 41 -60 75 -51 77 -234 313 -249 323 -8 4 -9 -1 -4 -16z m2218
-1580 c202 -51 327 -110 484 -229 208 -158 306 -277 405 -496 20 -44 40 -98
44 -120 4 -22 20 -63 35 -90 43 -77 58 -127 70 -245 10 -93 9 -124 -6 -210
-27 -167 -99 -402 -160 -527 -89 -181 -296 -442 -438 -549 -107 -81 -420 -214
-587 -250 -67 -14 -271 -19 -284 -7 -3 4 6 12 21 19 l28 12 -25 2 c-14 0 -114
9 -222 19 l-197 18 -143 78 c-322 176 -363 212 -503 447 -67 111 -76 132 -67
151 6 12 14 37 17 55 6 29 25 46 25 22 0 -17 43 -50 66 -50 33 0 84 47 84 77
0 14 -13 37 -31 55 -30 31 -30 32 -16 67 9 20 18 79 21 131 4 78 2 98 -11 112
-15 17 -15 20 9 46 33 36 40 58 22 73 -11 9 -21 9 -40 0 -14 -6 -27 -11 -30
-11 -9 0 8 44 27 69 25 31 24 52 -2 86 -18 22 -27 26 -52 21 -17 -3 -36 -11
-44 -17 -19 -16 -16 -62 6 -90 18 -24 18 -25 -5 -67 l-23 -44 -52 71 c-52 72
-70 83 -124 79 -29 -3 -30 -1 -33 42 -2 24 2 63 8 85 6 22 15 74 20 115 5 41
14 76 21 79 28 9 47 43 83 151 22 63 52 132 68 152 16 20 42 69 58 108 45 110
157 244 214 256 18 3 56 30 88 61 67 63 216 138 388 196 84 29 127 37 215 42
61 4 133 13 160 21 76 20 103 23 200 18 55 -2 136 -15 208 -34z m-1667 -921
c-9 -19 -15 -29 -16 -22 0 15 22 64 27 60 2 -2 -3 -19 -11 -38z m207 -550 c41
-22 49 -54 17 -64 -24 -7 -70 18 -70 38 0 12 19 37 28 37 2 0 13 -5 25 -11z
m3 -103 c41 -41 43 -73 9 -101 -24 -18 -25 -22 -13 -52 11 -28 10 -35 -4 -49
-13 -13 -24 -15 -55 -7 -36 9 -38 11 -35 44 2 29 -2 38 -22 47 -14 6 -32 23
-42 37 -14 21 -14 30 -4 55 17 41 46 60 93 60 31 0 46 -7 73 -34z"/>
<path d="M3272 3858 c6 -18 28 -21 28 -4 0 9 -7 16 -16 16 -9 0 -14 -5 -12
-12z"/>
<path d="M3210 3845 c0 -18 24 -30 39 -21 16 10 1 36 -20 36 -10 0 -19 -7 -19
-15z"/>
<path d="M3648 3534 c-11 -10 3 -34 19 -34 8 0 13 7 11 17 -3 18 -20 27 -30
17z"/>
<path d="M1568 3468 c-29 -10 -34 -23 -18 -48 8 -13 13 -13 37 0 16 9 29 26
31 38 4 24 -7 26 -50 10z"/>
<path d="M3630 3451 c0 -10 7 -25 16 -32 14 -11 18 -10 30 6 10 13 11 22 3 32
-17 20 -49 16 -49 -6z"/>
<path d="M3204 3426 c-8 -33 3 -51 22 -35 11 9 17 9 29 -1 11 -9 15 -9 15 -1
0 6 -6 14 -14 17 -8 3 -16 14 -19 25 -7 27 -25 24 -33 -5z"/>
<path d="M1287 3410 c-7 -26 16 -55 37 -47 10 4 16 18 16 37 0 25 -4 30 -24
30 -15 0 -26 -7 -29 -20z"/>
<path d="M3413 3375 c-9 -10 -10 -16 -2 -21 15 -9 36 13 24 25 -6 6 -15 4 -22
-4z"/>
<path d="M2715 3341 c-22 -10 -50 -29 -62 -42 -68 -75 -53 -212 29 -270 44
-32 149 -39 202 -14 59 28 90 77 94 150 5 69 -8 103 -55 146 -54 50 -138 62
-208 30z m132 -31 c56 -25 83 -70 83 -137 0 -41 -5 -58 -26 -83 -65 -76 -145
-79 -213 -6 -18 19 -26 41 -29 80 -6 70 22 120 82 147 51 23 51 23 103 -1z"/>
<path d="M3453 3350 c-27 -11 -43 -40 -43 -77 0 -28 66 -113 88 -113 16 0 52
-50 52 -71 0 -23 -34 -59 -56 -59 -9 0 -29 14 -44 30 -18 19 -34 28 -44 24
-24 -9 -19 -30 15 -58 24 -20 41 -26 79 -26 42 0 52 4 74 31 47 55 26 119 -58
179 -48 35 -61 58 -51 89 8 26 28 32 56 16 45 -26 50 -28 62 -16 31 31 -77 74
-130 51z"/>
<path d="M1560 3180 l0 -170 25 0 c25 0 25 1 25 80 l0 80 80 0 80 0 0 -80 c0
-79 0 -80 25 -80 l25 0 0 170 0 170 -25 0 c-24 0 -25 -2 -25 -75 l0 -75 -80 0
-80 0 0 75 c0 73 -1 75 -25 75 l-25 0 0 -170z"/>
<path d="M1950 3180 l0 -170 105 0 c87 0 105 3 105 15 0 12 -16 15 -80 15
l-80 0 0 70 0 70 80 0 c64 0 80 3 80 15 0 12 -16 15 -80 15 l-80 0 0 55 0 55
80 0 c64 0 80 3 80 15 0 12 -18 15 -105 15 l-105 0 0 -170z"/>
<path d="M2280 3181 c0 -164 1 -171 20 -171 18 0 20 7 20 75 0 41 3 75 8 75 4
-1 32 -34 62 -75 45 -61 60 -75 83 -75 15 0 27 3 27 6 0 3 -25 38 -56 77 l-56
72 38 6 c47 8 74 40 74 88 0 27 -7 44 -26 62 -22 21 -37 24 -110 28 l-84 3 0
-171z m155 119 c20 -17 19 -59 -2 -82 -11 -13 -30 -18 -65 -18 l-48 0 0 53 c0
30 3 57 8 61 10 11 89 1 107 -14z"/>
<path d="M3100 3180 l0 -170 105 0 c87 0 105 3 105 15 0 12 -16 15 -80 15
l-80 0 0 70 0 70 80 0 c64 0 80 3 80 15 0 12 -16 15 -80 15 l-80 0 0 55 0 55
80 0 c64 0 80 3 80 15 0 12 -18 15 -105 15 l-105 0 0 -170z"/>
<path d="M3380 3286 c0 -8 5 -18 10 -21 6 -3 10 1 10 9 0 8 -4 18 -10 21 -5 3
-10 -1 -10 -9z"/>
<path d="M1670 3042 c-22 -8 -30 -25 -18 -39 14 -17 33 -16 48 3 11 12 11 17
-1 28 -8 8 -21 11 -29 8z"/>
<path d="M1554 2874 c-13 -19 -14 -28 -5 -37 16 -16 54 23 45 46 -9 24 -21 21
-40 -9z"/>
<path d="M1486 2865 c-11 -29 -6 -55 9 -55 23 0 29 26 12 50 -13 18 -15 19
-21 5z"/>
<path d="M1593 2805 c-3 -9 1 -23 10 -33 8 -9 17 -30 19 -46 4 -41 18 -42 63
-3 44 38 41 57 -11 57 -27 0 -34 4 -34 20 0 24 -38 28 -47 5z"/>
<path d="M1532 2773 c-22 -8 -33 -40 -22 -67 12 -33 21 -32 60 0 25 21 28 29
19 41 -17 20 -42 31 -57 26z"/>
<path d="M1948 2623 c-16 -4 -27 -43 -12 -43 16 0 44 23 44 35 0 15 -2 16 -32
8z"/>
<path d="M1556 2584 c-12 -30 -6 -44 17 -44 32 0 38 8 25 36 -13 27 -33 31
-42 8z"/>
</g>
</svg>
